<?xml version="1.0" standalone="no"?>
<svg viewBox="0 0 200 200" xmlns="http://www.w3.org/2000/svg">
  <path fill="#5EE0A8" d="M29.8,-58.7C32.9,-44.4,25.8,-26.5,32,-14.2C38.1,-2,57.4,4.5,57.9,9C58.3,13.5,39.7,15.9,30.9,27.5C22,39.1,22.8,59.8,15.2,70.7C7.6,81.6,-8.5,82.8,-19,75C-29.4,67.2,-34.2,50.5,-44.9,38.6C-55.6,26.8,-72.2,19.8,-78.1,8.5C-84.1,-2.9,-79.4,-18.5,-69.2,-27.8C-59.1,-37.2,-43.5,-40.3,-31,-50.4C-18.6,-60.5,-9.3,-77.6,2,-80.8C13.3,-83.9,26.7,-73.1,29.8,-58.7Z" transform="translate(100 100)" />
</svg>
